<?xml version="1.0" encoding="utf-8"?>
<!-- Generator: Adobe Illustrator 16.0.4, SVG Export Plug-In . SVG Version: 6.00 Build 0)  -->
<!DOCTYPE svg PUBLIC "-//W3C//DTD SVG 1.1//EN" "http://www.w3.org/Graphics/SVG/1.1/DTD/svg11.dtd">
<svg version="1.1" id="Layer_1" xmlns="http://www.w3.org/2000/svg" xmlns:xlink="http://www.w3.org/1999/xlink" x="0px" y="0px"
	 width="244.986px" height="120px" viewBox="0 0 244.986 120" enable-background="new 0 0 244.986 120" xml:space="preserve">
<path fill="#333333" d="M40.628,18.626c0.82-2.98-0.37-5.381-0.37-5.381c-2.467-0.248-5.775,2.182-5.775,2.182
	c-1.849-0.861-8.412-0.768-10.34,0.123c0,0-3.494-2.553-5.961-2.305c0,0-1.235,2.914-0.25,5.748c0,0-2.999,2.877-2.056,8.51
	c0.946,5.627,5.138,7.643,10.027,8.092c0,0-1.313,0.986-1.646,2.633c0,0-2.967,1.457-4.663-0.266
	c-1.693-1.729-1.678-2.812-3.9-3.301c-0.842-0.185-1.193,0.229-1.125,0.635c0.065,0.426,1.432,0.596,2.19,1.557
	c0.425,0.533,1.392,2.896,3.054,3.605c1.663,0.711,3.087,0.557,4.315,0.277c0.019,1.86,0.145,4.006,0.013,4.727
	c-0.206,1.109-1.359,1.561-1.359,1.561s-0.425,0.097-0.425,0.466c0,0.366,0.662,0.305,0.662,0.305s2.666-0.041,2.666-2.295v-5.193
	c0,0,0.285-1.539,1.024-1.539c0,0,0.197,8.414,0.104,8.785c-0.095,0.371-0.017,0.662-0.614,0.969
	c-0.604,0.312-0.272,1.25,0.897,0.834c1.172-0.418,1.699-0.989,1.775-2.086c0.076-1.098,0-8.68,0-8.68s0.156-0.262,0.72-0.262
	c0.591,0,0.695,0.319,0.695,0.319s0.086,7.662,0.161,8.757c0.078,1.094,0.486,1.584,1.658,1.997c1.172,0.414,1.463-0.547,0.86-0.854
	c-0.602-0.309-0.602-0.613-0.692-0.982c-0.092-0.373-0.252-8.791-0.252-8.791c0.738,0,1.088,1.537,1.088,1.537l0.25,5.193
	c0,2.25,2.354,2.295,2.354,2.295s1.069,0.064,1.069-0.307s-0.377-0.465-0.377-0.465s-1.12-0.453-1.323-1.562
	c-0.206-1.105,0.214-5.586-0.114-7.229c-0.325-1.646-1.635-2.634-1.635-2.634c4.892-0.448,9.086-2.021,9.75-8.178
	C43.788,20.852,40.628,18.626,40.628,18.626z"/>
<path fill="#333333" d="M89.933,24.784c0,0-8.311-0.099-14.23-7.263c0,0-2.963,4.683,2.1,9.269c0,0-1.813,0.188-2.961-0.861
	c0,0-0.477,5.252,5.354,6.875c0,0-1.337,0.859-2.868,0c0,0,0.86,4.683,6.309,4.965c0,0-3.531,3.634-10.028,2.961
	c0,0,4.394,3.25,10.314,3.062c5.922-0.189,19.295-2.771,19.868-20.631l3.006-2.92c0,0-2.243,0.438-3.192,0.34
	c0,0,2.958-2.484,2.768-3.916c0,0-2.293,1.719-4.393,1.719c0,0-1.812-2.576-6.02-2.195C91.748,16.567,89.551,20.868,89.933,24.784z"
	/>
<g>
	<polygon fill="#333333" points="214.032,32.954 210.552,29.979 209.755,29.325 199.028,40.769 229.825,40.769 218.53,29.294 	"/>
	<polygon fill="#333333" points="198.708,18.965 209.665,27.958 209.692,27.928 211.241,29.253 214.042,31.551 229.604,18.965 	"/>
	<polygon fill="#333333" points="208.979,28.688 197.876,19.577 197.876,40.538 	"/>
	<polygon fill="#333333" points="219.26,28.614 230.427,39.956 230.427,19.588 	"/>
</g>
<path fill="#333333" d="M143.989,15.477c0,2.166-1.805,3.925-4.031,3.925c-2.226,0-4.033-1.759-4.033-3.925s1.811-3.924,4.033-3.924
	C142.184,11.553,143.989,13.311,143.989,15.477z M143.903,23.061h-6.854v20.562h6.854V23.061z"/>
<path fill="#333333" d="M160.458,21.542c-4.047,0-6.271,3.336-6.271,3.336v-1.816h-6.854v20.562h6.854V33.008
	c0,0-0.486-5.82,3.566-5.82c2.143,0,3.285,1.104,3.285,5.707v10.729h7.639l0.029-13.293
	C168.702,25.049,165.464,21.542,160.458,21.542z"/>
<path fill="#3388DD" d="M40.628,76.572c0.82-2.98-0.37-5.381-0.37-5.381c-2.467-0.248-5.775,2.182-5.775,2.182
	c-1.849-0.861-8.412-0.768-10.34,0.123c0,0-3.494-2.553-5.961-2.305c0,0-1.235,2.914-0.25,5.748c0,0-2.999,2.877-2.056,8.51
	c0.946,5.627,5.138,7.644,10.027,8.093c0,0-1.313,0.985-1.646,2.633c0,0-2.967,1.457-4.663-0.267
	c-1.693-1.729-1.678-2.812-3.9-3.301c-0.842-0.187-1.193,0.229-1.125,0.635c0.065,0.427,1.432,0.597,2.19,1.558
	c0.425,0.533,1.392,2.896,3.054,3.604c1.663,0.711,3.087,0.558,4.315,0.276c0.019,1.859,0.145,4.007,0.013,4.728
	c-0.206,1.109-1.359,1.562-1.359,1.562s-0.425,0.096-0.425,0.465c0,0.367,0.662,0.305,0.662,0.305s2.666-0.041,2.666-2.295v-5.193
	c0,0,0.285-1.539,1.024-1.539c0,0,0.197,8.414,0.104,8.785c-0.095,0.371-0.017,0.662-0.614,0.969
	c-0.604,0.312-0.272,1.25,0.897,0.834c1.172-0.418,1.699-0.987,1.775-2.086c0.076-1.098,0-8.68,0-8.68s0.156-0.262,0.72-0.262
	c0.591,0,0.695,0.32,0.695,0.32s0.086,7.662,0.161,8.756c0.078,1.094,0.486,1.584,1.658,1.998s1.463-0.547,0.86-0.855
	c-0.602-0.309-0.602-0.613-0.692-0.982c-0.092-0.373-0.252-8.791-0.252-8.791c0.738,0,1.088,1.537,1.088,1.537l0.25,5.193
	c0,2.25,2.354,2.295,2.354,2.295s1.069,0.064,1.069-0.307s-0.377-0.465-0.377-0.465s-1.12-0.453-1.323-1.562
	c-0.206-1.105,0.214-5.586-0.114-7.229c-0.325-1.646-1.635-2.633-1.635-2.633c4.892-0.449,9.086-2.021,9.75-8.179
	C43.788,78.797,40.628,76.572,40.628,76.572z"/>
<path fill="#3388DD" d="M89.933,82.73c0,0-8.311-0.1-14.23-7.264c0,0-2.963,4.684,2.1,9.27c0,0-1.813,0.188-2.961-0.861
	c0,0-0.477,5.252,5.354,6.876c0,0-1.337,0.858-2.868,0c0,0,0.86,4.682,6.309,4.965c0,0-3.531,3.633-10.028,2.961
	c0,0,4.394,3.25,10.314,3.061s19.295-2.771,19.868-20.631l3.006-2.92c0,0-2.243,0.438-3.192,0.34c0,0,2.958-2.483,2.768-3.916
	c0,0-2.293,1.719-4.393,1.719c0,0-1.812-2.575-6.02-2.194C91.748,74.514,89.551,78.814,89.933,82.73z"/>
<g>
	<polygon fill="#3388DD" points="214.032,90.9 210.552,87.924 209.755,87.271 199.028,98.712 229.825,98.712 218.53,87.24 	"/>
	<polygon fill="#3388DD" points="198.708,76.91 209.665,85.904 209.692,85.872 211.241,87.199 214.042,89.496 229.604,76.91 	"/>
	<polygon fill="#3388DD" points="208.979,86.633 197.876,77.523 197.876,98.484 	"/>
	<polygon fill="#3388DD" points="219.26,86.561 230.427,97.902 230.427,77.533 	"/>
</g>
<path fill="#3388DD" d="M143.989,73.422c0,2.166-1.805,3.926-4.031,3.926c-2.226,0-4.033-1.76-4.033-3.926s1.811-3.925,4.033-3.925
	C142.184,69.497,143.989,71.256,143.989,73.422z M143.903,81.006h-6.854v20.562h6.854V81.006z"/>
<path fill="#3388DD" d="M160.458,79.488c-4.047,0-6.271,3.336-6.271,3.336v-1.816h-6.854v20.561h6.854V90.953
	c0,0-0.486-5.82,3.566-5.82c2.143,0,3.285,1.105,3.285,5.708v10.729h7.639l0.029-13.293
	C168.702,82.994,165.464,79.488,160.458,79.488z"/>
</svg>
